<?xml version="1.0" encoding="UTF-8" standalone="no"?>
<!-- Created with Vectornator (http://vectornator.io/) -->

<svg
   height="100%"
   stroke-miterlimit="10"
   style="fill-rule:nonzero;clip-rule:evenodd;stroke-linecap:round;stroke-linejoin:round;"
   version="1.1"
   viewBox="0 0 841.995 595.35"
   width="100%"
   xml:space="preserve"
   id="svg33"
   sodipodi:docname="Logo.svg"
   inkscape:version="1.3 (1:1.3+202307231459+0e150ed6c4)"
   xmlns:inkscape="http://www.inkscape.org/namespaces/inkscape"
   xmlns:sodipodi="http://sodipodi.sourceforge.net/DTD/sodipodi-0.dtd"
   xmlns="http://www.w3.org/2000/svg"
   xmlns:svg="http://www.w3.org/2000/svg"
   xmlns:vectornator="http://vectornator.io"><sodipodi:namedview
   id="namedview33"
   pagecolor="#ffffff"
   bordercolor="#000000"
   borderopacity="0.25"
   inkscape:showpageshadow="2"
   inkscape:pageopacity="0.0"
   inkscape:pagecheckerboard="0"
   inkscape:deskcolor="#d1d1d1"
   inkscape:zoom="1.0827784"
   inkscape:cx="458.08081"
   inkscape:cy="295.536"
   inkscape:window-width="1850"
   inkscape:window-height="1016"
   inkscape:window-x="0"
   inkscape:window-y="0"
   inkscape:window-maximized="1"
   inkscape:current-layer="g33" />&#10;<defs
   id="defs1" />&#10;<g
   id="Layer-1"
   vectornator:layerName="Layer 1">&#10;<g
   opacity="1"
   vectornator:layerName="Group 1"
   id="g33">&#10;&#10;&#10;&#10;&#10;&#10;<g
   id="g34"
   transform="translate(-6.35259,3.6499176)"><path
     d="m 147.01029,358.02561 c 4.19252,-93.41623 32.8264,-325.056304 45.31814,-323.279304 8.9302,1.269511 9.94671,364.197094 65.85458,363.915494 38.94803,-0.68069 75.32542,-263.12168 75.32542,-263.12168 0,0 1.23788,272.49011 52.65054,263.12168 34.29317,1.43064 72.94303,-331.924892 89.70712,-326.256542 9.65906,3.26637 4.03439,326.158662 41.34246,326.256542 35.45274,0.0919 80.58113,-247.8801 80.58113,-247.8801 0,0 -4.0329,248.17225 66.79881,247.8801 25.42322,-0.10546 39.35462,-44.33476 39.35462,-44.33476"
     fill="#3395ff"
     fill-opacity="0"
     fill-rule="nonzero"
     opacity="1"
     stroke="#000000"
     stroke-linecap="round"
     stroke-linejoin="round"
     stroke-width="13.9581"
     vectornator:layerName="Curve 1"
     id="path1" /><path
     d="m 703.04709,334.91251 c 0,-3.91392 3.17301,-7.08693 7.08693,-7.08693 3.91393,0 7.08694,3.17301 7.08694,7.08693 0,3.91393 -3.17301,7.08693 -7.08694,7.08693 -3.91392,0 -7.08693,-3.173 -7.08693,-7.08693 z"
     fill="#010b16"
     fill-rule="nonzero"
     opacity="1"
     stroke="#000000"
     stroke-linecap="butt"
     stroke-linejoin="round"
     stroke-width="0.0150593"
     vectornator:layerName="Oval 1"
     id="path2" /><path
     d="m 137.47922,398.86209 c 0,-3.91393 3.17301,-7.08693 7.08693,-7.08693 3.91394,0 7.08694,3.173 7.08694,7.08693 0,3.91392 -3.173,7.08694 -7.08694,7.08694 -3.91392,0 -7.08693,-3.17302 -7.08693,-7.08694 z"
     fill="#010b16"
     fill-rule="nonzero"
     opacity="1"
     stroke="#000000"
     stroke-linecap="butt"
     stroke-linejoin="round"
     stroke-width="0.0150593"
     vectornator:layerName="Oval 2"
     id="path3" /><path
     d="m 138.49873,378.89037 c 0,-3.91393 3.17302,-7.08695 7.08695,-7.08695 3.91392,0 7.08693,3.17302 7.08693,7.08695 0,3.91392 -3.17301,7.08693 -7.08693,7.08693 -3.91393,0 -7.08695,-3.17301 -7.08695,-7.08693 z"
     fill="#010b16"
     fill-rule="nonzero"
     opacity="1"
     stroke="#000000"
     stroke-linecap="butt"
     stroke-linejoin="round"
     stroke-width="0.0150593"
     vectornator:layerName="Oval 5"
     id="path4" /><g
     fill="#000000"
     opacity="1"
     stroke="none"
     vectornator:layerName="Text 1"
     id="g16"
     transform="matrix(1.5059361,0,0,1.5059361,-147.08397,-169.63633)">&#10;<path
   d="m 198.146,419.117 c -0.61,4.39 -1.068,8.723 -1.374,12.998 -0.305,4.276 -0.611,8.551 -0.916,12.826 -0.458,-0.076 -0.916,-0.114 -1.374,-0.114 -0.458,0 -0.897,0 -1.317,0 -0.458,0 -0.907,0 -1.346,0 -0.439,0 -0.887,0.038 -1.345,0.114 1.221,-6.565 2.309,-13.093 3.264,-19.582 0.954,-6.49 1.832,-13.075 2.633,-19.755 0.42,0.076 0.812,0.143 1.174,0.2 0.363,0.058 0.754,0.086 1.174,0.086 0.344,0 0.706,-0.028 1.088,-0.086 0.382,-0.057 0.783,-0.124 1.202,-0.2 1.031,2.29 2.11,4.619 3.236,6.986 1.126,2.366 2.252,4.724 3.378,7.071 1.126,2.348 2.252,4.648 3.378,6.9 1.126,2.252 2.205,4.39 3.235,6.413 2.291,-4.275 4.572,-8.751 6.843,-13.427 2.271,-4.676 4.437,-9.324 6.499,-13.943 0.954,0.191 1.775,0.286 2.462,0.286 0.649,0 1.451,-0.095 2.405,-0.286 0.382,3.283 0.792,6.814 1.231,10.593 0.439,3.779 0.868,7.472 1.288,11.08 0.42,3.607 0.84,6.976 1.26,10.106 0.42,3.13 0.802,5.65 1.145,7.558 -0.763,-0.076 -1.536,-0.114 -2.319,-0.114 -0.782,0 -1.555,0 -2.319,0 -0.763,0 -1.546,0 -2.347,0 -0.802,0 -1.604,0.038 -2.405,0.114 -0.191,-3.932 -0.506,-8.188 -0.945,-12.769 -0.439,-4.58 -0.888,-9.123 -1.346,-13.627 h -0.114 c -2.176,4.504 -4.314,8.932 -6.413,13.284 -2.1,4.352 -4.18,8.722 -6.242,13.112 -0.19,-0.038 -0.372,-0.067 -0.544,-0.086 -0.171,-0.019 -0.353,-0.028 -0.544,-0.028 -0.19,0 -0.372,0.009 -0.543,0.028 -0.172,0.019 -0.354,0.048 -0.544,0.086 -2.062,-4.275 -4.114,-8.55 -6.156,-12.826 -2.042,-4.275 -4.151,-8.608 -6.327,-12.998 z"
   id="path5" />&#10;<path
   d="m 258.59,436.238 c 0,-1.642 0.01,-2.892 0.029,-3.751 0.019,-0.859 0.029,-1.612 0.029,-2.261 -0.802,0.458 -1.651,0.83 -2.548,1.116 -0.897,0.286 -1.718,0.649 -2.463,1.088 -0.744,0.439 -1.355,1.04 -1.832,1.804 -0.477,0.763 -0.716,1.87 -0.716,3.321 0,1.412 0.296,2.491 0.888,3.235 0.592,0.744 1.384,1.117 2.376,1.117 1.26,0 2.281,-0.478 3.064,-1.432 0.782,-0.954 1.173,-2.367 1.173,-4.237 z m -13.57,-15.575 c 1.603,-1.298 3.33,-2.29 5.182,-2.977 1.851,-0.687 3.693,-1.031 5.525,-1.031 1.527,0 2.93,0.172 4.209,0.515 1.279,0.344 2.386,0.888 3.321,1.632 0.935,0.745 1.661,1.709 2.176,2.892 0.515,1.183 0.773,2.615 0.773,4.294 0,2.443 -0.029,4.705 -0.086,6.786 -0.057,2.08 -0.086,4.151 -0.086,6.212 0,0.916 0.067,1.632 0.2,2.148 0.134,0.515 0.335,0.906 0.602,1.173 0.267,0.268 0.62,0.439 1.059,0.516 0.439,0.076 0.945,0.114 1.517,0.114 v 1.374 c -1.107,0.458 -2.042,0.802 -2.805,1.031 -0.764,0.229 -1.585,0.344 -2.462,0.344 -1.413,0 -2.558,-0.344 -3.436,-1.031 -0.878,-0.687 -1.546,-1.68 -2.004,-2.978 -0.878,1.222 -1.899,2.195 -3.064,2.921 -1.164,0.725 -2.624,1.088 -4.38,1.088 -1.45,0 -2.691,-0.191 -3.722,-0.573 -1.03,-0.382 -1.88,-0.926 -2.548,-1.632 -0.668,-0.706 -1.154,-1.508 -1.46,-2.405 -0.305,-0.897 -0.458,-1.803 -0.458,-2.72 0,-1.259 0.2,-2.347 0.601,-3.263 0.401,-0.917 0.974,-1.699 1.718,-2.348 0.744,-0.649 1.632,-1.193 2.663,-1.632 1.03,-0.439 2.195,-0.811 3.492,-1.116 1.604,-0.382 2.873,-0.716 3.808,-1.002 0.935,-0.287 1.632,-0.573 2.09,-0.859 0.458,-0.287 0.754,-0.602 0.888,-0.945 0.133,-0.344 0.2,-0.764 0.2,-1.26 0,-1.374 -0.487,-2.548 -1.46,-3.521 -0.973,-0.974 -2.319,-1.46 -4.037,-1.46 -0.649,0 -1.317,0.085 -2.004,0.257 -0.687,0.172 -1.345,0.411 -1.975,0.716 -0.63,0.305 -1.203,0.639 -1.718,1.002 -0.515,0.363 -0.907,0.754 -1.174,1.174 h -0.401 z"
   id="path6" />&#10;<path
   d="m 282.961,408.582 c 0,-1.031 0.362,-1.909 1.088,-2.634 0.725,-0.726 1.603,-1.088 2.634,-1.088 1.03,0 1.908,0.362 2.634,1.088 0.725,0.725 1.088,1.603 1.088,2.634 0,1.03 -0.363,1.908 -1.088,2.633 -0.726,0.726 -1.604,1.088 -2.634,1.088 -1.031,0 -1.909,-0.362 -2.634,-1.088 -0.726,-0.725 -1.088,-1.603 -1.088,-2.633 z m -11.91,0 c 0,-1.031 0.334,-1.909 1.002,-2.634 0.668,-0.726 1.517,-1.088 2.548,-1.088 1.031,0 1.909,0.362 2.634,1.088 0.725,0.725 1.088,1.603 1.088,2.634 0,1.03 -0.363,1.908 -1.088,2.633 -0.725,0.726 -1.603,1.088 -2.634,1.088 -1.031,0 -1.88,-0.362 -2.548,-1.088 -0.668,-0.725 -1.002,-1.603 -1.002,-2.633 z m 5.726,21.529 c 0,-2.328 -0.029,-4.514 -0.086,-6.556 -0.057,-2.042 -0.181,-4.094 -0.372,-6.156 0.534,0.077 1.164,0.144 1.889,0.201 0.726,0.057 1.527,0.086 2.405,0.086 1.794,0 3.226,-0.096 4.295,-0.287 -0.191,2.062 -0.315,4.114 -0.373,6.156 -0.057,2.042 -0.085,4.228 -0.085,6.556 v 2.29 c 0,2.329 0.028,4.524 0.085,6.585 0.058,2.062 0.182,4.047 0.373,5.955 -0.497,-0.076 -1.117,-0.114 -1.861,-0.114 -0.745,0 -1.556,0 -2.434,0 -0.878,0 -1.679,0 -2.405,0 -0.725,0 -1.355,0.038 -1.889,0.114 0.191,-1.908 0.315,-3.893 0.372,-5.955 0.057,-2.061 0.086,-4.256 0.086,-6.585 z"
   id="path7" />&#10;<path
   d="m 295.02,421.579 c 0,-3.741 -0.038,-7.176 -0.114,-10.306 -0.076,-3.13 -0.191,-6.299 -0.344,-9.505 0.497,0.076 1.127,0.143 1.89,0.2 0.763,0.057 1.565,0.086 2.405,0.086 0.84,0 1.641,-0.029 2.405,-0.086 0.763,-0.057 1.393,-0.124 1.889,-0.2 -0.152,3.206 -0.267,6.375 -0.343,9.505 -0.077,3.13 -0.115,6.565 -0.115,10.306 v 3.722 c 0,3.741 0.038,7.177 0.115,10.307 0.076,3.13 0.191,6.241 0.343,9.333 -0.496,-0.076 -1.126,-0.114 -1.889,-0.114 -0.764,0 -1.565,0 -2.405,0 -0.84,0 -1.642,0 -2.405,0 -0.763,0 -1.393,0.038 -1.89,0.114 0.153,-3.092 0.268,-6.203 0.344,-9.333 0.076,-3.13 0.114,-6.566 0.114,-10.307 z"
   id="path8" />&#10;<path
   d="m 325.575,435.379 c 0.687,-1.756 1.317,-3.388 1.89,-4.896 0.572,-1.508 1.116,-2.968 1.631,-4.38 0.516,-1.412 1.012,-2.825 1.489,-4.237 0.477,-1.413 0.964,-2.901 1.46,-4.467 0.42,0.077 0.811,0.144 1.174,0.201 0.363,0.057 0.735,0.086 1.117,0.086 0.381,0 0.763,-0.029 1.145,-0.086 0.382,-0.057 0.801,-0.124 1.26,-0.201 -0.191,0.497 -0.64,1.556 -1.346,3.178 -0.706,1.623 -1.565,3.627 -2.577,6.013 -1.011,2.385 -2.128,5.029 -3.349,7.93 -1.222,2.901 -2.453,5.831 -3.694,8.789 -1.24,2.959 -2.443,5.889 -3.607,8.79 -1.164,2.901 -2.185,5.535 -3.063,7.901 -0.42,-0.076 -0.821,-0.143 -1.203,-0.2 -0.382,-0.057 -0.782,-0.086 -1.202,-0.086 -0.42,0 -0.821,0.029 -1.203,0.086 -0.381,0.057 -0.782,0.124 -1.202,0.2 1.26,-2.519 2.5,-5.01 3.722,-7.472 1.221,-2.462 2.405,-4.953 3.55,-7.472 -0.916,-2.176 -1.937,-4.638 -3.064,-7.387 -1.126,-2.748 -2.233,-5.439 -3.321,-8.073 -1.088,-2.634 -2.08,-5.039 -2.977,-7.215 -0.897,-2.176 -1.575,-3.836 -2.033,-4.982 0.725,0.077 1.441,0.144 2.147,0.201 0.707,0.057 1.422,0.086 2.148,0.086 0.725,0 1.431,-0.029 2.118,-0.086 0.687,-0.057 1.394,-0.124 2.119,-0.201 1.107,3.016 2.223,6.013 3.349,8.99 1.127,2.978 2.3,5.974 3.522,8.99 z"
   id="path9" />&#10;<path
   d="m 344.048,437.898 c 0.229,0.611 0.525,1.193 0.887,1.747 0.363,0.553 0.811,1.05 1.346,1.489 0.534,0.438 1.174,0.792 1.918,1.059 0.744,0.267 1.613,0.401 2.605,0.401 1.336,0 2.367,-0.344 3.092,-1.031 0.726,-0.687 1.088,-1.432 1.088,-2.233 0,-0.878 -0.324,-1.584 -0.973,-2.119 -0.649,-0.534 -1.46,-1.021 -2.434,-1.46 -0.973,-0.439 -2.032,-0.887 -3.178,-1.345 -1.145,-0.459 -2.204,-1.041 -3.178,-1.747 -0.973,-0.706 -1.784,-1.594 -2.433,-2.662 -0.649,-1.069 -0.973,-2.444 -0.973,-4.123 0,-1.603 0.295,-2.987 0.887,-4.151 0.592,-1.165 1.365,-2.119 2.319,-2.863 0.954,-0.745 2.033,-1.298 3.235,-1.661 1.203,-0.363 2.396,-0.544 3.579,-0.544 1.603,0 3.025,0.229 4.266,0.687 1.24,0.458 2.51,1.126 3.808,2.004 -0.344,0.764 -0.63,1.584 -0.859,2.462 -0.229,0.878 -0.401,1.737 -0.516,2.577 h -1.603 c -0.114,-0.458 -0.305,-0.964 -0.573,-1.517 -0.267,-0.554 -0.629,-1.079 -1.087,-1.575 -0.459,-0.496 -1.012,-0.906 -1.661,-1.231 -0.649,-0.324 -1.431,-0.487 -2.348,-0.487 -1.145,0 -2.109,0.306 -2.891,0.916 -0.783,0.611 -1.174,1.413 -1.174,2.405 0,0.917 0.334,1.651 1.002,2.205 0.668,0.553 1.498,1.04 2.491,1.46 0.992,0.42 2.08,0.84 3.264,1.26 1.183,0.42 2.271,0.964 3.263,1.632 0.993,0.668 1.823,1.536 2.491,2.605 0.668,1.069 1.002,2.443 1.002,4.123 0,1.679 -0.305,3.12 -0.916,4.323 -0.611,1.202 -1.431,2.195 -2.462,2.977 -1.031,0.783 -2.205,1.346 -3.522,1.689 -1.317,0.344 -2.7,0.516 -4.151,0.516 -1.718,0 -3.264,-0.248 -4.638,-0.745 -1.374,-0.496 -2.462,-1.011 -3.264,-1.546 0.458,-1.832 0.745,-3.664 0.859,-5.497 z"
   id="path10" />&#10;<path
   d="m 392.617,419.117 c -0.611,4.39 -1.069,8.723 -1.374,12.998 -0.306,4.276 -0.611,8.551 -0.917,12.826 -0.458,-0.076 -0.916,-0.114 -1.374,-0.114 -0.458,0 -0.897,0 -1.317,0 -0.458,0 -0.906,0 -1.345,0 -0.439,0 -0.888,0.038 -1.346,0.114 1.222,-6.565 2.31,-13.093 3.264,-19.582 0.954,-6.49 1.832,-13.075 2.634,-19.755 0.42,0.076 0.811,0.143 1.174,0.2 0.362,0.058 0.753,0.086 1.173,0.086 0.344,0 0.707,-0.028 1.088,-0.086 0.382,-0.057 0.783,-0.124 1.203,-0.2 1.03,2.29 2.109,4.619 3.235,6.986 1.126,2.366 2.252,4.724 3.378,7.071 1.126,2.348 2.252,4.648 3.379,6.9 1.126,2.252 2.204,4.39 3.235,6.413 2.29,-4.275 4.571,-8.751 6.842,-13.427 2.271,-4.676 4.438,-9.324 6.499,-13.943 0.954,0.191 1.775,0.286 2.462,0.286 0.649,0 1.451,-0.095 2.405,-0.286 0.382,3.283 0.792,6.814 1.231,10.593 0.439,3.779 0.869,7.472 1.289,11.08 0.419,3.607 0.839,6.976 1.259,10.106 0.42,3.13 0.802,5.65 1.145,7.558 -0.763,-0.076 -1.536,-0.114 -2.319,-0.114 -0.782,0 -1.555,0 -2.319,0 -0.763,0 -1.546,0 -2.347,0 -0.802,0 -1.603,0.038 -2.405,0.114 -0.191,-3.932 -0.506,-8.188 -0.945,-12.769 -0.439,-4.58 -0.887,-9.123 -1.345,-13.627 h -0.115 c -2.176,4.504 -4.313,8.932 -6.413,13.284 -2.1,4.352 -4.18,8.722 -6.241,13.112 -0.191,-0.038 -0.372,-0.067 -0.544,-0.086 -0.172,-0.019 -0.353,-0.028 -0.544,-0.028 -0.191,0 -0.372,0.009 -0.544,0.028 -0.172,0.019 -0.353,0.048 -0.544,0.086 -2.061,-4.275 -4.113,-8.55 -6.156,-12.826 -2.042,-4.275 -4.151,-8.608 -6.327,-12.998 z"
   id="path11" />&#10;<path
   d="m 439.605,406.577 c 0,-1.259 0.439,-2.328 1.317,-3.206 0.878,-0.878 1.946,-1.317 3.206,-1.317 1.26,0 2.329,0.439 3.207,1.317 0.878,0.878 1.317,1.947 1.317,3.206 0,1.26 -0.439,2.329 -1.317,3.207 -0.878,0.878 -1.947,1.317 -3.207,1.317 -1.26,0 -2.328,-0.439 -3.206,-1.317 -0.878,-0.878 -1.317,-1.947 -1.317,-3.207 z m 0.687,23.534 c 0,-2.328 -0.029,-4.514 -0.086,-6.556 -0.057,-2.042 -0.181,-4.094 -0.372,-6.156 0.534,0.077 1.164,0.144 1.889,0.201 0.726,0.057 1.527,0.086 2.405,0.086 1.794,0 3.226,-0.096 4.295,-0.287 -0.191,2.062 -0.315,4.114 -0.373,6.156 -0.057,2.042 -0.085,4.228 -0.085,6.556 v 2.29 c 0,2.329 0.028,4.524 0.085,6.585 0.058,2.062 0.182,4.047 0.373,5.955 -0.497,-0.076 -1.117,-0.114 -1.861,-0.114 -0.745,0 -1.556,0 -2.434,0 -0.878,0 -1.679,0 -2.405,0 -0.725,0 -1.355,0.038 -1.889,0.114 0.191,-1.908 0.315,-3.893 0.372,-5.955 0.057,-2.061 0.086,-4.256 0.086,-6.585 z"
   id="path12" />&#10;<path
   d="m 475.37,431.714 c 0,-4.122 -0.516,-7.071 -1.546,-8.846 -1.031,-1.775 -2.367,-2.663 -4.008,-2.663 -0.687,0 -1.336,0.182 -1.947,0.544 -0.611,0.363 -1.145,0.954 -1.603,1.775 -0.459,0.821 -0.821,1.899 -1.088,3.235 -0.268,1.336 -0.401,2.978 -0.401,4.925 0,2.176 0.162,3.989 0.486,5.439 0.325,1.451 0.735,2.606 1.232,3.465 0.496,0.858 1.068,1.46 1.717,1.803 0.649,0.344 1.279,0.516 1.89,0.516 1.565,0 2.834,-0.812 3.808,-2.434 0.973,-1.622 1.46,-4.209 1.46,-7.759 z m 7.558,9.219 c 0,3.665 0.038,7.014 0.115,10.049 0.076,3.035 0.19,6.041 0.343,9.018 -0.496,-0.076 -1.126,-0.143 -1.889,-0.2 -0.764,-0.057 -1.566,-0.086 -2.405,-0.086 -0.84,0 -1.642,0.029 -2.405,0.086 -0.764,0.057 -1.394,0.124 -1.89,0.2 0.153,-2.977 0.267,-5.945 0.344,-8.903 0.076,-2.959 0.114,-6.118 0.114,-9.477 h -0.114 c -0.649,1.222 -1.67,2.205 -3.064,2.949 -1.393,0.744 -2.948,1.117 -4.666,1.117 -1.565,0 -3.025,-0.334 -4.381,-1.002 -1.355,-0.668 -2.529,-1.642 -3.521,-2.921 -0.993,-1.278 -1.775,-2.786 -2.348,-4.523 -0.572,-1.737 -0.859,-3.636 -0.859,-5.697 0,-2.024 0.21,-3.942 0.63,-5.755 0.42,-1.813 1.069,-3.397 1.947,-4.753 0.878,-1.355 2.014,-2.424 3.407,-3.206 1.393,-0.783 3.063,-1.174 5.01,-1.174 2.291,0 4.066,0.496 5.325,1.489 1.26,0.992 2.253,2.347 2.978,4.065 l 0.114,-0.114 c 0,-0.115 -0.019,-0.401 -0.057,-0.859 -0.038,-0.458 -0.076,-0.954 -0.114,-1.489 -0.039,-0.534 -0.086,-1.031 -0.144,-1.489 -0.057,-0.458 -0.105,-0.744 -0.143,-0.859 0.382,0.077 0.926,0.144 1.632,0.201 0.706,0.057 1.441,0.086 2.205,0.086 0.839,0 1.641,-0.029 2.405,-0.086 0.763,-0.057 1.393,-0.124 1.889,-0.201 -0.153,3.207 -0.267,6.375 -0.343,9.506 -0.077,3.13 -0.115,6.565 -0.115,10.306 z"
   id="path13" />&#10;<path
   d="m 509.245,440.819 c -1.069,1.603 -2.319,2.815 -3.75,3.636 -1.432,0.82 -3.064,1.231 -4.896,1.231 -2.863,0 -5.067,-0.802 -6.613,-2.405 -1.546,-1.604 -2.319,-4.257 -2.319,-7.959 0,-1.947 0.038,-3.665 0.114,-5.154 0.077,-1.488 0.115,-2.977 0.115,-4.466 0,-1.221 -0.029,-2.548 -0.086,-3.979 -0.057,-1.432 -0.124,-2.873 -0.201,-4.324 0.497,0.077 1.126,0.144 1.89,0.201 0.763,0.057 1.565,0.086 2.405,0.086 0.84,0 1.641,-0.029 2.405,-0.086 0.763,-0.057 1.393,-0.124 1.889,-0.201 -0.267,2.062 -0.439,4.448 -0.515,7.158 -0.076,2.71 -0.115,5.802 -0.115,9.276 0,2.405 0.411,4.17 1.232,5.296 0.82,1.127 1.975,1.69 3.464,1.69 1.718,0 2.977,-0.745 3.779,-2.234 0.801,-1.488 1.202,-3.55 1.202,-6.184 v -2.29 c 0,-2.328 -0.028,-4.514 -0.086,-6.556 -0.057,-2.042 -0.181,-4.094 -0.372,-6.156 1.069,0.191 2.501,0.287 4.295,0.287 0.878,0 1.679,-0.029 2.405,-0.086 0.725,-0.057 1.355,-0.124 1.889,-0.201 -0.191,2.062 -0.315,4.114 -0.372,6.156 -0.057,2.042 -0.086,4.228 -0.086,6.556 v 2.29 c 0,2.329 0.029,4.524 0.086,6.585 0.057,2.062 0.181,4.047 0.372,5.955 -0.687,-0.076 -1.365,-0.114 -2.033,-0.114 -0.668,0 -1.345,0 -2.032,0 -0.687,0 -1.365,0 -2.033,0 -0.668,0 -1.384,0.038 -2.147,0.114 l 0.229,-4.122 z"
   id="path14" />&#10;<path
   d="m 533.1,431.256 c 0,1.527 0.153,2.959 0.458,4.295 0.306,1.336 0.773,2.49 1.403,3.464 0.63,0.973 1.432,1.737 2.405,2.29 0.974,0.554 2.109,0.831 3.407,0.831 2.634,0 4.982,-0.859 7.043,-2.577 l 0.687,0.515 -1.26,3.207 c -0.954,0.725 -2.099,1.307 -3.435,1.746 -1.336,0.439 -3.092,0.659 -5.268,0.659 -1.87,0 -3.645,-0.258 -5.325,-0.773 -1.68,-0.516 -3.159,-1.365 -4.438,-2.548 -1.278,-1.184 -2.29,-2.682 -3.034,-4.495 -0.745,-1.813 -1.117,-3.98 -1.117,-6.499 0,-2.481 0.334,-4.638 1.002,-6.471 0.668,-1.832 1.594,-3.359 2.777,-4.58 1.183,-1.222 2.586,-2.138 4.209,-2.749 1.622,-0.611 3.388,-0.916 5.296,-0.916 3.779,0 6.671,1.107 8.675,3.321 2.004,2.214 3.006,5.344 3.006,9.391 v 1.202 c 0,0.344 -0.019,0.573 -0.057,0.687 z m 8.818,-2.576 c -0.076,-2.863 -0.429,-5.154 -1.059,-6.872 -0.63,-1.717 -1.689,-2.576 -3.178,-2.576 -0.84,0 -1.546,0.286 -2.118,0.859 -0.573,0.572 -1.031,1.307 -1.375,2.204 -0.343,0.897 -0.601,1.909 -0.773,3.035 -0.171,1.126 -0.276,2.243 -0.315,3.35 z"
   id="path15" />&#10;<path
   d="m 557.814,421.579 c 0,-3.741 -0.038,-7.176 -0.114,-10.306 -0.076,-3.13 -0.191,-6.299 -0.344,-9.505 0.497,0.076 1.126,0.143 1.89,0.2 0.763,0.057 1.565,0.086 2.405,0.086 0.84,0 1.641,-0.029 2.405,-0.086 0.763,-0.057 1.393,-0.124 1.889,-0.2 -0.152,3.206 -0.267,6.375 -0.343,9.505 -0.077,3.13 -0.115,6.565 -0.115,10.306 v 3.722 c 0,3.741 0.038,7.177 0.115,10.307 0.076,3.13 0.191,6.241 0.343,9.333 -0.496,-0.076 -1.126,-0.114 -1.889,-0.114 -0.764,0 -1.565,0 -2.405,0 -0.84,0 -1.642,0 -2.405,0 -0.764,0 -1.393,0.038 -1.89,0.114 0.153,-3.092 0.268,-6.203 0.344,-9.333 0.076,-3.13 0.114,-6.566 0.114,-10.307 z"
   id="path16" />&#10;</g><g
     fill="#010b16"
     opacity="1"
     stroke="none"
     vectornator:layerName="Text 2"
     id="g32"
     transform="matrix(1.5059361,0,0,1.5059361,-147.08397,-169.63633)">&#10;<path
   d="m 262.375,484.699 c -1.899,-2.196 -3.922,-4.447 -6.07,-6.751 -2.147,-2.304 -4.294,-4.595 -6.441,-6.874 -0.016,0.462 -0.033,1.081 -0.049,1.858 -0.017,0.776 -0.025,1.833 -0.025,3.171 0,0.347 0.004,0.776 0.012,1.288 0.008,0.512 0.017,1.049 0.025,1.61 0.008,0.562 0.021,1.132 0.037,1.71 0.017,0.578 0.033,1.115 0.05,1.61 0.016,0.496 0.033,0.929 0.049,1.301 0.017,0.371 0.033,0.623 0.05,0.755 -0.265,-0.033 -0.554,-0.049 -0.867,-0.049 -0.331,0 -0.636,0.016 -0.917,0.049 0.033,-0.165 0.07,-0.47 0.111,-0.916 0.042,-0.446 0.079,-0.979 0.112,-1.598 0.033,-0.62 0.07,-1.293 0.111,-2.019 0.042,-0.727 0.075,-1.454 0.1,-2.18 0.024,-0.727 0.045,-1.437 0.061,-2.131 0.017,-0.694 0.025,-1.313 0.025,-1.858 0,-1.586 -0.004,-2.948 -0.012,-4.088 -0.008,-1.14 -0.029,-1.99 -0.062,-2.552 h 0.396 c 1.008,1.09 2.085,2.259 3.233,3.506 1.148,1.247 2.288,2.477 3.419,3.691 1.132,1.214 2.205,2.362 3.221,3.444 1.016,1.082 1.903,2.003 2.663,2.762 v -3.369 c 0,-1.734 -0.012,-3.423 -0.037,-5.066 -0.025,-1.644 -0.078,-3.192 -0.161,-4.646 0.33,0.083 0.611,0.124 0.842,0.124 0.199,0 0.463,-0.041 0.793,-0.124 -0.033,0.364 -0.07,0.909 -0.111,1.635 -0.042,0.727 -0.083,1.503 -0.124,2.329 -0.042,0.826 -0.079,1.635 -0.112,2.428 -0.033,0.793 -0.049,1.429 -0.049,1.908 0,0.413 0,0.908 0,1.486 0,0.562 0.004,1.148 0.012,1.759 0.008,0.611 0.017,1.227 0.025,1.846 0.008,0.619 0.016,1.197 0.025,1.734 0.008,0.537 0.012,1.004 0.012,1.4 0,0.363 0,0.636 0,0.817 z"
   id="path17" />&#10;<path
   d="m 267.702,473.749 c 0,-1.09 -0.021,-2.163 -0.062,-3.221 -0.042,-1.057 -0.087,-2.114 -0.137,-3.171 0.744,0.033 1.483,0.062 2.218,0.087 0.735,0.025 1.474,0.037 2.217,0.037 0.743,0 1.478,-0.012 2.205,-0.037 0.727,-0.025 1.462,-0.054 2.205,-0.087 -0.05,0.248 -0.074,0.496 -0.074,0.744 0,0.247 0.024,0.495 0.074,0.743 -0.529,-0.033 -1.012,-0.066 -1.449,-0.099 -0.438,-0.033 -0.9,-0.066 -1.388,-0.099 -0.487,-0.033 -1.02,-0.062 -1.598,-0.087 -0.578,-0.025 -1.271,-0.037 -2.081,-0.037 -0.016,0.528 -0.037,1.032 -0.062,1.511 -0.024,0.479 -0.037,1.024 -0.037,1.635 0,0.644 0.004,1.272 0.013,1.883 0.008,0.611 0.012,1.074 0.012,1.387 0.727,0 1.379,-0.008 1.957,-0.024 0.578,-0.017 1.107,-0.038 1.586,-0.062 0.479,-0.025 0.921,-0.05 1.325,-0.075 0.405,-0.024 0.789,-0.053 1.152,-0.086 -0.049,0.247 -0.074,0.503 -0.074,0.768 0,0.247 0.025,0.495 0.074,0.743 -0.429,-0.05 -0.929,-0.091 -1.499,-0.124 -0.57,-0.033 -1.139,-0.054 -1.709,-0.062 -0.57,-0.008 -1.107,-0.016 -1.61,-0.025 -0.504,-0.008 -0.905,-0.012 -1.202,-0.012 0,0.149 -0.004,0.31 -0.012,0.483 -0.009,0.173 -0.013,0.392 -0.013,0.656 v 0.967 1.486 c 0,0.942 0.004,1.718 0.013,2.329 0.008,0.611 0.02,1.074 0.037,1.387 0.545,0 1.123,0 1.734,0 0.628,0 1.243,-0.012 1.846,-0.037 0.602,-0.025 1.172,-0.058 1.709,-0.099 0.537,-0.041 1.003,-0.103 1.4,-0.186 -0.033,0.116 -0.054,0.244 -0.062,0.384 -0.008,0.141 -0.012,0.269 -0.012,0.384 0,0.265 0.024,0.479 0.074,0.644 -0.743,-0.033 -1.482,-0.049 -2.217,-0.049 -0.735,0 -1.483,0 -2.243,0 -0.759,0 -1.511,0 -2.254,0 -0.743,0 -1.495,0.016 -2.255,0.049 0.05,-1.057 0.095,-2.11 0.137,-3.158 0.041,-1.049 0.062,-2.119 0.062,-3.209 z"
   id="path18" />&#10;<path
   d="m 292.996,475.409 c 0,-2.345 -0.008,-4.154 -0.024,-5.426 -0.017,-1.271 -0.058,-2.147 -0.124,-2.626 0.181,0.033 0.355,0.062 0.52,0.087 0.165,0.025 0.33,0.037 0.496,0.037 0.214,0 0.462,-0.041 0.743,-0.124 -0.05,0.578 -0.099,1.268 -0.149,2.069 -0.049,0.801 -0.091,1.66 -0.124,2.577 -0.033,0.916 -0.066,1.858 -0.099,2.824 -0.033,0.966 -0.058,1.903 -0.074,2.812 -0.017,1.106 -0.186,2.097 -0.508,2.973 -0.322,0.875 -0.78,1.618 -1.375,2.229 -0.595,0.611 -1.325,1.074 -2.193,1.388 -0.867,0.314 -1.862,0.47 -2.985,0.47 -2.477,0 -4.278,-0.561 -5.401,-1.684 -1.123,-1.123 -1.684,-2.899 -1.684,-5.327 0,-0.776 0.02,-1.466 0.062,-2.068 0.041,-0.603 0.061,-1.218 0.061,-1.846 0,-1.387 -0.016,-2.618 -0.049,-3.691 -0.033,-1.074 -0.066,-1.982 -0.099,-2.726 0.198,0.033 0.413,0.062 0.644,0.087 0.231,0.025 0.446,0.037 0.644,0.037 0.182,0 0.359,-0.012 0.533,-0.037 0.173,-0.025 0.351,-0.054 0.532,-0.087 -0.033,0.364 -0.066,0.839 -0.099,1.425 -0.033,0.586 -0.066,1.251 -0.099,1.994 -0.033,0.743 -0.058,1.545 -0.074,2.403 -0.017,0.859 -0.025,1.751 -0.025,2.676 0,0.562 0.008,1.144 0.025,1.747 0.016,0.602 0.074,1.189 0.173,1.759 0.099,0.569 0.26,1.114 0.483,1.635 0.223,0.52 0.541,0.974 0.954,1.362 0.413,0.388 0.933,0.694 1.561,0.917 0.628,0.223 1.404,0.334 2.329,0.334 0.908,0 1.672,-0.132 2.291,-0.396 0.62,-0.264 1.128,-0.611 1.524,-1.041 0.396,-0.429 0.706,-0.924 0.929,-1.486 0.223,-0.562 0.384,-1.148 0.483,-1.759 0.099,-0.611 0.157,-1.222 0.174,-1.833 0.016,-0.611 0.024,-1.173 0.024,-1.685 z"
   id="path19" />&#10;<path
   d="m 299.363,473.774 c 0,-1.09 -0.02,-2.16 -0.061,-3.208 -0.042,-1.049 -0.087,-2.119 -0.137,-3.209 0.479,0.033 0.95,0.062 1.412,0.087 0.463,0.025 0.934,0.037 1.413,0.037 0.479,0 0.949,-0.02 1.412,-0.062 0.462,-0.041 0.933,-0.062 1.412,-0.062 0.694,0 1.354,0.066 1.982,0.199 0.627,0.132 1.177,0.351 1.647,0.656 0.471,0.306 0.843,0.706 1.115,1.202 0.273,0.495 0.409,1.114 0.409,1.858 0,0.793 -0.178,1.474 -0.533,2.044 -0.355,0.569 -0.788,1.04 -1.3,1.412 -0.512,0.371 -1.062,0.66 -1.648,0.867 -0.586,0.206 -1.119,0.343 -1.598,0.409 0.198,0.247 0.471,0.594 0.818,1.04 0.347,0.446 0.735,0.937 1.164,1.474 0.43,0.537 0.875,1.099 1.338,1.685 0.462,0.586 0.908,1.148 1.338,1.685 0.429,0.536 0.834,1.028 1.214,1.474 0.38,0.446 0.685,0.784 0.916,1.015 -0.247,-0.033 -0.495,-0.049 -0.743,-0.049 -0.248,0 -0.495,0 -0.743,0 -0.231,0 -0.471,0 -0.719,0 -0.247,0 -0.487,0.016 -0.718,0.049 -0.248,-0.346 -0.624,-0.867 -1.127,-1.56 -0.504,-0.694 -1.061,-1.437 -1.673,-2.23 -0.611,-0.793 -1.234,-1.582 -1.87,-2.366 -0.636,-0.785 -1.218,-1.449 -1.747,-1.994 h -0.941 v 1.808 c 0,1.09 0.021,2.164 0.062,3.221 0.041,1.057 0.087,2.097 0.136,3.121 -0.38,-0.033 -0.784,-0.049 -1.214,-0.049 -0.429,0 -0.834,0.016 -1.214,0.049 0.05,-1.024 0.095,-2.064 0.137,-3.121 0.041,-1.057 0.061,-2.131 0.061,-3.221 z m 2.032,1.412 c 0.231,0.05 0.483,0.083 0.756,0.099 0.272,0.017 0.574,0.025 0.904,0.025 0.512,0 1.045,-0.058 1.598,-0.173 0.553,-0.116 1.061,-0.318 1.523,-0.607 0.463,-0.289 0.847,-0.678 1.152,-1.165 0.306,-0.487 0.459,-1.102 0.459,-1.846 0,-0.644 -0.12,-1.176 -0.359,-1.597 -0.24,-0.422 -0.55,-0.756 -0.929,-1.004 -0.38,-0.248 -0.793,-0.417 -1.239,-0.508 -0.446,-0.091 -0.884,-0.136 -1.313,-0.136 -0.578,0 -1.057,0.012 -1.437,0.037 -0.38,0.025 -0.702,0.054 -0.966,0.087 -0.033,0.908 -0.066,1.808 -0.099,2.7 -0.034,0.892 -0.05,1.784 -0.05,2.676 z"
   id="path20" />&#10;<path
   d="m 313.113,475.905 c 0,-1.404 0.227,-2.655 0.682,-3.754 0.454,-1.098 1.09,-2.027 1.907,-2.787 0.818,-0.76 1.796,-1.338 2.936,-1.734 1.14,-0.397 2.387,-0.595 3.741,-0.595 1.371,0 2.626,0.198 3.766,0.595 1.139,0.396 2.118,0.974 2.935,1.734 0.818,0.76 1.454,1.689 1.908,2.787 0.454,1.099 0.681,2.35 0.681,3.754 0,1.403 -0.227,2.655 -0.681,3.753 -0.454,1.098 -1.09,2.027 -1.908,2.787 -0.817,0.76 -1.796,1.325 -2.935,1.697 -1.14,0.372 -2.395,0.557 -3.766,0.557 -1.354,0 -2.601,-0.185 -3.741,-0.557 -1.14,-0.372 -2.118,-0.937 -2.936,-1.697 -0.817,-0.76 -1.453,-1.689 -1.907,-2.787 -0.455,-1.098 -0.682,-2.35 -0.682,-3.753 z m 16.128,0 c 0,-1.371 -0.173,-2.556 -0.52,-3.556 -0.347,-0.999 -0.83,-1.825 -1.449,-2.477 -0.619,-0.652 -1.346,-1.136 -2.18,-1.449 -0.834,-0.314 -1.739,-0.471 -2.713,-0.471 -0.958,0 -1.854,0.157 -2.688,0.471 -0.834,0.313 -1.561,0.797 -2.18,1.449 -0.62,0.652 -1.103,1.478 -1.45,2.477 -0.346,1 -0.52,2.185 -0.52,3.556 0,1.37 0.174,2.555 0.52,3.555 0.347,0.999 0.83,1.825 1.45,2.477 0.619,0.653 1.346,1.136 2.18,1.449 0.834,0.314 1.73,0.471 2.688,0.471 0.974,0 1.879,-0.157 2.713,-0.471 0.834,-0.313 1.561,-0.796 2.18,-1.449 0.619,-0.652 1.102,-1.478 1.449,-2.477 0.347,-1 0.52,-2.185 0.52,-3.555 z"
   id="path21" />&#10;<path
   d="m 337.169,475.632 c 0.562,0.132 1.148,0.198 1.759,0.198 0.512,0 1.041,-0.058 1.586,-0.173 0.545,-0.116 1.045,-0.326 1.499,-0.632 0.454,-0.306 0.826,-0.727 1.115,-1.263 0.289,-0.537 0.433,-1.227 0.433,-2.069 0,-0.71 -0.099,-1.288 -0.297,-1.734 -0.198,-0.446 -0.475,-0.793 -0.83,-1.041 -0.355,-0.248 -0.789,-0.417 -1.301,-0.508 -0.512,-0.091 -1.09,-0.136 -1.734,-0.136 h -2.23 z m -2.031,-1.858 c 0,-1.09 -0.021,-2.16 -0.062,-3.208 -0.041,-1.049 -0.087,-2.119 -0.136,-3.209 0.396,0.033 0.797,0.062 1.201,0.087 0.405,0.025 0.805,0.037 1.202,0.037 0.198,0 0.437,-0.008 0.718,-0.025 0.281,-0.016 0.566,-0.028 0.855,-0.037 0.289,-0.008 0.566,-0.02 0.83,-0.037 0.264,-0.016 0.487,-0.025 0.669,-0.025 0.247,0 0.553,0.009 0.916,0.025 0.364,0.017 0.748,0.066 1.152,0.149 0.405,0.082 0.806,0.206 1.202,0.371 0.396,0.166 0.756,0.405 1.078,0.719 0.322,0.314 0.582,0.706 0.78,1.177 0.198,0.47 0.297,1.053 0.297,1.746 0,1.09 -0.235,1.974 -0.706,2.651 -0.47,0.677 -1.049,1.206 -1.734,1.586 -0.685,0.38 -1.412,0.636 -2.18,0.768 -0.768,0.132 -1.449,0.198 -2.044,0.198 -0.38,0 -0.727,-0.004 -1.041,-0.013 -0.313,-0.008 -0.635,-0.028 -0.966,-0.061 v 1.362 c 0,1.09 0.021,2.164 0.062,3.221 0.042,1.057 0.087,2.097 0.136,3.121 -0.379,-0.033 -0.784,-0.049 -1.213,-0.049 -0.43,0 -0.835,0.016 -1.214,0.049 0.049,-1.024 0.095,-2.064 0.136,-3.121 0.041,-1.057 0.062,-2.131 0.062,-3.221 z"
   id="path22" />&#10;<path
   d="m 348.367,481.157 c 0.132,0.297 0.31,0.598 0.533,0.904 0.223,0.306 0.495,0.582 0.818,0.83 0.322,0.248 0.697,0.45 1.127,0.607 0.429,0.157 0.908,0.235 1.437,0.235 0.545,0 1.036,-0.095 1.474,-0.285 0.437,-0.19 0.809,-0.446 1.115,-0.768 0.305,-0.322 0.541,-0.702 0.706,-1.139 0.165,-0.438 0.247,-0.905 0.247,-1.4 0,-0.76 -0.194,-1.363 -0.582,-1.809 -0.388,-0.445 -0.871,-0.817 -1.449,-1.114 -0.578,-0.298 -1.202,-0.57 -1.871,-0.818 -0.668,-0.248 -1.292,-0.557 -1.87,-0.929 -0.578,-0.372 -1.061,-0.846 -1.449,-1.425 -0.388,-0.578 -0.582,-1.354 -0.582,-2.328 0,-0.694 0.123,-1.326 0.371,-1.896 0.248,-0.569 0.607,-1.061 1.078,-1.474 0.471,-0.413 1.036,-0.735 1.697,-0.966 0.661,-0.231 1.404,-0.347 2.23,-0.347 0.792,0 1.478,0.095 2.056,0.285 0.578,0.19 1.115,0.483 1.61,0.88 -0.148,0.28 -0.272,0.578 -0.371,0.892 -0.1,0.313 -0.199,0.71 -0.298,1.189 h -0.297 c -0.083,-0.231 -0.194,-0.483 -0.334,-0.756 -0.141,-0.272 -0.331,-0.524 -0.57,-0.756 -0.24,-0.231 -0.525,-0.425 -0.855,-0.582 -0.33,-0.157 -0.727,-0.235 -1.189,-0.235 -0.463,0 -0.888,0.074 -1.276,0.223 -0.388,0.149 -0.727,0.359 -1.016,0.632 -0.289,0.272 -0.512,0.598 -0.669,0.978 -0.157,0.38 -0.235,0.793 -0.235,1.239 0,0.776 0.194,1.387 0.582,1.833 0.388,0.446 0.871,0.822 1.449,1.128 0.578,0.305 1.202,0.578 1.871,0.817 0.669,0.24 1.292,0.533 1.87,0.88 0.578,0.346 1.062,0.792 1.45,1.337 0.388,0.545 0.582,1.272 0.582,2.181 0,0.759 -0.136,1.478 -0.409,2.155 -0.272,0.677 -0.669,1.268 -1.189,1.771 -0.52,0.504 -1.156,0.892 -1.908,1.165 -0.751,0.272 -1.606,0.408 -2.564,0.408 -1.024,0 -1.854,-0.136 -2.49,-0.408 -0.636,-0.273 -1.168,-0.583 -1.598,-0.929 0.149,-0.38 0.252,-0.723 0.31,-1.028 0.058,-0.306 0.112,-0.698 0.161,-1.177 z"
   id="path23" />&#10;<path
   d="m 365.437,477.416 c -0.165,-0.281 -0.409,-0.69 -0.731,-1.227 -0.322,-0.536 -0.677,-1.131 -1.065,-1.783 -0.388,-0.653 -0.797,-1.338 -1.227,-2.057 -0.429,-0.718 -0.838,-1.403 -1.226,-2.056 -0.388,-0.652 -0.739,-1.239 -1.053,-1.759 -0.314,-0.52 -0.553,-0.912 -0.718,-1.177 0.231,0.033 0.458,0.062 0.681,0.087 0.223,0.025 0.45,0.037 0.681,0.037 0.232,0 0.459,-0.012 0.682,-0.037 0.223,-0.025 0.45,-0.054 0.681,-0.087 0.743,1.437 1.499,2.849 2.267,4.237 0.768,1.387 1.581,2.832 2.44,4.335 0.38,-0.594 0.776,-1.247 1.189,-1.957 0.413,-0.71 0.826,-1.437 1.239,-2.18 0.413,-0.743 0.809,-1.491 1.189,-2.242 0.38,-0.752 0.735,-1.482 1.065,-2.193 0.413,0.083 0.735,0.124 0.967,0.124 0.231,0 0.553,-0.041 0.966,-0.124 -0.793,1.206 -1.503,2.296 -2.131,3.271 -0.627,0.974 -1.181,1.858 -1.66,2.65 -0.479,0.793 -0.9,1.508 -1.263,2.143 -0.363,0.636 -0.677,1.21 -0.942,1.722 0,0.611 0.005,1.264 0.013,1.957 0.008,0.694 0.02,1.375 0.037,2.044 0.017,0.669 0.037,1.289 0.062,1.858 0.025,0.57 0.054,1.029 0.087,1.375 -0.38,-0.033 -0.785,-0.049 -1.214,-0.049 -0.43,0 -0.834,0.016 -1.214,0.049 0.099,-0.858 0.157,-1.899 0.173,-3.121 0.017,-1.222 0.025,-2.502 0.025,-3.84 z"
   id="path24" />&#10;<path
   d="m 389.245,483.362 c -0.148,0.132 -0.384,0.276 -0.706,0.433 -0.322,0.157 -0.71,0.298 -1.164,0.421 -0.454,0.124 -0.962,0.236 -1.524,0.335 -0.561,0.099 -1.148,0.148 -1.759,0.148 -1.305,0 -2.51,-0.185 -3.617,-0.557 -1.107,-0.372 -2.06,-0.937 -2.861,-1.697 -0.801,-0.76 -1.429,-1.689 -1.883,-2.787 -0.454,-1.098 -0.682,-2.35 -0.682,-3.753 0,-1.404 0.228,-2.655 0.682,-3.754 0.454,-1.098 1.09,-2.027 1.907,-2.787 0.818,-0.76 1.797,-1.338 2.936,-1.734 1.14,-0.397 2.395,-0.595 3.766,-0.595 1.09,0 2.085,0.112 2.985,0.335 0.9,0.223 1.697,0.491 2.391,0.805 -0.132,0.231 -0.24,0.545 -0.322,0.941 -0.083,0.397 -0.149,0.727 -0.198,0.991 l -0.149,0.05 c -0.165,-0.198 -0.396,-0.421 -0.694,-0.669 -0.297,-0.248 -0.644,-0.487 -1.04,-0.719 -0.397,-0.231 -0.843,-0.425 -1.338,-0.582 -0.496,-0.157 -1.041,-0.235 -1.635,-0.235 -0.975,0 -1.879,0.157 -2.713,0.471 -0.834,0.313 -1.561,0.797 -2.18,1.449 -0.619,0.652 -1.103,1.478 -1.449,2.477 -0.347,1 -0.521,2.185 -0.521,3.556 0,1.37 0.174,2.555 0.521,3.555 0.346,0.999 0.83,1.825 1.449,2.477 0.619,0.653 1.346,1.136 2.18,1.449 0.834,0.314 1.738,0.471 2.713,0.471 0.594,0 1.144,-0.074 1.647,-0.223 0.504,-0.148 0.967,-0.326 1.388,-0.532 0.421,-0.207 0.801,-0.43 1.139,-0.669 0.339,-0.24 0.624,-0.45 0.855,-0.632 l 0.099,0.099 z"
   id="path25" />&#10;<path
   d="m 405.349,473.774 c 0,-1.09 -0.021,-2.16 -0.062,-3.208 -0.042,-1.049 -0.087,-2.119 -0.137,-3.209 0.215,0.033 0.422,0.062 0.62,0.087 0.198,0.025 0.396,0.037 0.594,0.037 0.199,0 0.397,-0.012 0.595,-0.037 0.198,-0.025 0.405,-0.054 0.619,-0.087 -0.049,1.09 -0.095,2.16 -0.136,3.209 -0.041,1.048 -0.062,2.118 -0.062,3.208 v 4.261 c 0,1.09 0.021,2.164 0.062,3.221 0.041,1.057 0.087,2.097 0.136,3.121 -0.38,-0.033 -0.784,-0.049 -1.214,-0.049 -0.429,0 -0.834,0.016 -1.214,0.049 0.05,-1.024 0.095,-2.064 0.137,-3.121 0.041,-1.057 0.062,-2.131 0.062,-3.221 v -2.23 c -0.892,-0.016 -1.755,-0.028 -2.589,-0.037 -0.834,-0.008 -1.697,-0.012 -2.589,-0.012 -0.892,0 -1.755,0.004 -2.589,0.012 -0.834,0.009 -1.697,0.021 -2.589,0.037 v 2.23 c 0,1.09 0.021,2.164 0.062,3.221 0.041,1.057 0.087,2.097 0.136,3.121 -0.38,-0.033 -0.784,-0.049 -1.214,-0.049 -0.429,0 -0.834,0.016 -1.214,0.049 0.05,-1.024 0.095,-2.064 0.136,-3.121 0.042,-1.057 0.062,-2.131 0.062,-3.221 v -4.261 c 0,-1.09 -0.02,-2.16 -0.062,-3.208 -0.041,-1.049 -0.086,-2.119 -0.136,-3.209 0.215,0.033 0.421,0.062 0.62,0.087 0.198,0.025 0.396,0.037 0.594,0.037 0.198,0 0.397,-0.012 0.595,-0.037 0.198,-0.025 0.404,-0.054 0.619,-0.087 -0.049,1.09 -0.095,2.16 -0.136,3.209 -0.041,1.048 -0.062,2.118 -0.062,3.208 v 0.867 c 0.892,0.017 1.755,0.033 2.589,0.05 0.834,0.016 1.697,0.024 2.589,0.024 0.892,0 1.755,-0.008 2.589,-0.024 0.834,-0.017 1.697,-0.033 2.589,-0.05 z"
   id="path26" />&#10;<path
   d="m 410.849,475.905 c 0,-1.404 0.227,-2.655 0.681,-3.754 0.454,-1.098 1.09,-2.027 1.907,-2.787 0.818,-0.76 1.797,-1.338 2.936,-1.734 1.14,-0.397 2.387,-0.595 3.741,-0.595 1.371,0 2.626,0.198 3.766,0.595 1.14,0.396 2.118,0.974 2.936,1.734 0.817,0.76 1.453,1.689 1.907,2.787 0.455,1.099 0.682,2.35 0.682,3.754 0,1.403 -0.227,2.655 -0.682,3.753 -0.454,1.098 -1.09,2.027 -1.907,2.787 -0.818,0.76 -1.796,1.325 -2.936,1.697 -1.14,0.372 -2.395,0.557 -3.766,0.557 -1.354,0 -2.601,-0.185 -3.741,-0.557 -1.139,-0.372 -2.118,-0.937 -2.936,-1.697 -0.817,-0.76 -1.453,-1.689 -1.907,-2.787 -0.454,-1.098 -0.681,-2.35 -0.681,-3.753 z m 16.128,0 c 0,-1.371 -0.174,-2.556 -0.521,-3.556 -0.346,-0.999 -0.829,-1.825 -1.449,-2.477 -0.619,-0.652 -1.346,-1.136 -2.18,-1.449 -0.834,-0.314 -1.738,-0.471 -2.713,-0.471 -0.958,0 -1.854,0.157 -2.688,0.471 -0.834,0.313 -1.561,0.797 -2.18,1.449 -0.619,0.652 -1.102,1.478 -1.449,2.477 -0.347,1 -0.521,2.185 -0.521,3.556 0,1.37 0.174,2.555 0.521,3.555 0.347,0.999 0.83,1.825 1.449,2.477 0.619,0.653 1.346,1.136 2.18,1.449 0.834,0.314 1.73,0.471 2.688,0.471 0.975,0 1.879,-0.157 2.713,-0.471 0.834,-0.313 1.561,-0.796 2.18,-1.449 0.62,-0.652 1.103,-1.478 1.449,-2.477 0.347,-1 0.521,-2.185 0.521,-3.555 z"
   id="path27" />&#10;<path
   d="m 432.873,473.774 c 0,-1.09 -0.021,-2.16 -0.062,-3.208 -0.041,-1.049 -0.087,-2.119 -0.136,-3.209 0.215,0.033 0.421,0.062 0.619,0.087 0.198,0.025 0.397,0.037 0.595,0.037 0.198,0 0.396,-0.012 0.594,-0.037 0.199,-0.025 0.405,-0.054 0.62,-0.087 -0.05,1.09 -0.095,2.16 -0.137,3.209 -0.041,1.048 -0.061,2.118 -0.061,3.208 0,2.081 0.008,3.885 0.024,5.413 0.017,1.528 0.033,2.895 0.05,4.1 1.173,0 2.296,-0.012 3.369,-0.037 1.074,-0.025 2.23,-0.12 3.469,-0.285 -0.083,0.298 -0.124,0.545 -0.124,0.743 0,0.182 0.041,0.405 0.124,0.669 -0.76,-0.033 -1.52,-0.049 -2.28,-0.049 -0.759,0 -1.519,0 -2.279,0 -0.793,0 -1.557,0 -2.292,0 -0.734,0 -1.498,0.016 -2.291,0.049 0.049,-1.024 0.095,-2.064 0.136,-3.121 0.041,-1.057 0.062,-2.131 0.062,-3.221 z"
   id="path28" />&#10;<path
   d="m 443.873,475.905 c 0,-1.404 0.227,-2.655 0.681,-3.754 0.454,-1.098 1.09,-2.027 1.908,-2.787 0.817,-0.76 1.796,-1.338 2.936,-1.734 1.139,-0.397 2.386,-0.595 3.741,-0.595 1.37,0 2.626,0.198 3.765,0.595 1.14,0.396 2.119,0.974 2.936,1.734 0.818,0.76 1.453,1.689 1.908,2.787 0.454,1.099 0.681,2.35 0.681,3.754 0,1.403 -0.227,2.655 -0.681,3.753 -0.455,1.098 -1.09,2.027 -1.908,2.787 -0.817,0.76 -1.796,1.325 -2.936,1.697 -1.139,0.372 -2.395,0.557 -3.765,0.557 -1.355,0 -2.602,-0.185 -3.741,-0.557 -1.14,-0.372 -2.119,-0.937 -2.936,-1.697 -0.818,-0.76 -1.454,-1.689 -1.908,-2.787 -0.454,-1.098 -0.681,-2.35 -0.681,-3.753 z m 16.128,0 c 0,-1.371 -0.173,-2.556 -0.52,-3.556 -0.347,-0.999 -0.83,-1.825 -1.449,-2.477 -0.62,-0.652 -1.347,-1.136 -2.181,-1.449 -0.834,-0.314 -1.738,-0.471 -2.712,-0.471 -0.958,0 -1.854,0.157 -2.688,0.471 -0.835,0.313 -1.561,0.797 -2.181,1.449 -0.619,0.652 -1.102,1.478 -1.449,2.477 -0.347,1 -0.52,2.185 -0.52,3.556 0,1.37 0.173,2.555 0.52,3.555 0.347,0.999 0.83,1.825 1.449,2.477 0.62,0.653 1.346,1.136 2.181,1.449 0.834,0.314 1.73,0.471 2.688,0.471 0.974,0 1.878,-0.157 2.712,-0.471 0.834,-0.313 1.561,-0.796 2.181,-1.449 0.619,-0.652 1.102,-1.478 1.449,-2.477 0.347,-1 0.52,-2.185 0.52,-3.555 z"
   id="path29" />&#10;<path
   d="m 480.093,470.38 c -0.248,-0.297 -0.557,-0.595 -0.929,-0.892 -0.371,-0.297 -0.784,-0.557 -1.239,-0.78 -0.454,-0.223 -0.958,-0.405 -1.511,-0.545 -0.553,-0.141 -1.144,-0.211 -1.771,-0.211 -1.024,0 -1.978,0.157 -2.862,0.471 -0.883,0.313 -1.651,0.797 -2.304,1.449 -0.652,0.652 -1.164,1.478 -1.536,2.477 -0.371,1 -0.557,2.185 -0.557,3.556 0,1.205 0.165,2.295 0.495,3.27 0.331,0.974 0.814,1.796 1.45,2.465 0.636,0.669 1.412,1.185 2.328,1.548 0.917,0.364 1.954,0.545 3.11,0.545 0.347,0 0.71,-0.016 1.09,-0.049 0.38,-0.033 0.747,-0.083 1.102,-0.149 0.355,-0.066 0.686,-0.149 0.991,-0.248 0.306,-0.099 0.566,-0.214 0.781,-0.347 0.016,-0.495 0.028,-0.99 0.037,-1.486 0.008,-0.495 0.012,-0.999 0.012,-1.511 0,-0.578 -0.012,-1.156 -0.037,-1.734 -0.025,-0.579 -0.054,-1.132 -0.087,-1.66 0.413,0.082 0.81,0.124 1.189,0.124 0.182,0 0.364,-0.009 0.545,-0.025 0.182,-0.017 0.356,-0.05 0.521,-0.099 -0.033,0.38 -0.058,0.978 -0.075,1.796 -0.016,0.817 -0.024,1.895 -0.024,3.233 0,0.33 0.004,0.665 0.012,1.003 0.008,0.339 0.012,0.673 0.012,1.004 -0.346,0.132 -0.78,0.268 -1.3,0.408 -0.521,0.141 -1.074,0.256 -1.66,0.347 -0.586,0.091 -1.173,0.174 -1.759,0.248 -0.586,0.074 -1.119,0.111 -1.598,0.111 -1.47,0 -2.795,-0.177 -3.976,-0.532 -1.181,-0.355 -2.185,-0.904 -3.01,-1.648 -0.826,-0.743 -1.462,-1.668 -1.908,-2.774 -0.446,-1.107 -0.669,-2.387 -0.669,-3.84 0,-1.404 0.231,-2.655 0.694,-3.754 0.462,-1.098 1.115,-2.027 1.957,-2.787 0.842,-0.76 1.862,-1.338 3.059,-1.734 1.198,-0.397 2.523,-0.595 3.977,-0.595 0.842,0 1.589,0.046 2.242,0.137 0.652,0.09 1.23,0.21 1.734,0.359 0.504,0.148 0.946,0.305 1.326,0.47 0.379,0.166 0.718,0.323 1.015,0.471 -0.132,0.231 -0.252,0.529 -0.359,0.892 -0.107,0.363 -0.177,0.702 -0.211,1.016 z"
   id="path30" />&#10;<path
   d="m 498.079,475.409 c 0,-2.345 -0.008,-4.154 -0.024,-5.426 -0.017,-1.271 -0.058,-2.147 -0.124,-2.626 0.181,0.033 0.355,0.062 0.52,0.087 0.165,0.025 0.33,0.037 0.496,0.037 0.214,0 0.462,-0.041 0.743,-0.124 -0.05,0.578 -0.099,1.268 -0.149,2.069 -0.049,0.801 -0.091,1.66 -0.124,2.577 -0.033,0.916 -0.066,1.858 -0.099,2.824 -0.033,0.966 -0.058,1.903 -0.074,2.812 -0.017,1.106 -0.186,2.097 -0.508,2.973 -0.322,0.875 -0.78,1.618 -1.375,2.229 -0.595,0.611 -1.325,1.074 -2.193,1.388 -0.867,0.314 -1.862,0.47 -2.985,0.47 -2.477,0 -4.278,-0.561 -5.401,-1.684 -1.123,-1.123 -1.684,-2.899 -1.684,-5.327 0,-0.776 0.02,-1.466 0.062,-2.068 0.041,-0.603 0.061,-1.218 0.061,-1.846 0,-1.387 -0.016,-2.618 -0.049,-3.691 -0.033,-1.074 -0.066,-1.982 -0.099,-2.726 0.198,0.033 0.413,0.062 0.644,0.087 0.231,0.025 0.446,0.037 0.644,0.037 0.182,0 0.359,-0.012 0.533,-0.037 0.173,-0.025 0.351,-0.054 0.532,-0.087 -0.033,0.364 -0.066,0.839 -0.099,1.425 -0.033,0.586 -0.066,1.251 -0.099,1.994 -0.033,0.743 -0.058,1.545 -0.074,2.403 -0.017,0.859 -0.025,1.751 -0.025,2.676 0,0.562 0.008,1.144 0.025,1.747 0.016,0.602 0.074,1.189 0.173,1.759 0.099,0.569 0.26,1.114 0.483,1.635 0.223,0.52 0.541,0.974 0.954,1.362 0.413,0.388 0.933,0.694 1.561,0.917 0.628,0.223 1.404,0.334 2.329,0.334 0.908,0 1.672,-0.132 2.291,-0.396 0.62,-0.264 1.128,-0.611 1.524,-1.041 0.396,-0.429 0.706,-0.924 0.929,-1.486 0.223,-0.562 0.384,-1.148 0.483,-1.759 0.099,-0.611 0.157,-1.222 0.174,-1.833 0.016,-0.611 0.024,-1.173 0.024,-1.685 z"
   id="path31" />&#10;<path
   d="m 504.446,473.749 c 0,-1.09 -0.02,-2.163 -0.061,-3.221 -0.042,-1.057 -0.087,-2.114 -0.137,-3.171 0.744,0.033 1.483,0.062 2.218,0.087 0.735,0.025 1.474,0.037 2.217,0.037 0.743,0 1.478,-0.012 2.205,-0.037 0.727,-0.025 1.462,-0.054 2.205,-0.087 -0.05,0.248 -0.075,0.496 -0.075,0.744 0,0.247 0.025,0.495 0.075,0.743 -0.529,-0.033 -1.012,-0.066 -1.45,-0.099 -0.437,-0.033 -0.9,-0.066 -1.387,-0.099 -0.487,-0.033 -1.02,-0.062 -1.598,-0.087 -0.578,-0.025 -1.272,-0.037 -2.081,-0.037 -0.016,0.528 -0.037,1.032 -0.062,1.511 -0.025,0.479 -0.037,1.024 -0.037,1.635 0,0.644 0.004,1.272 0.012,1.883 0.009,0.611 0.013,1.074 0.013,1.387 0.726,0 1.379,-0.008 1.957,-0.024 0.578,-0.017 1.107,-0.038 1.586,-0.062 0.478,-0.025 0.92,-0.05 1.325,-0.075 0.405,-0.024 0.789,-0.053 1.152,-0.086 -0.05,0.247 -0.074,0.503 -0.074,0.768 0,0.247 0.024,0.495 0.074,0.743 -0.429,-0.05 -0.929,-0.091 -1.499,-0.124 -0.57,-0.033 -1.14,-0.054 -1.709,-0.062 -0.57,-0.008 -1.107,-0.016 -1.611,-0.025 -0.503,-0.008 -0.904,-0.012 -1.201,-0.012 0,0.149 -0.004,0.31 -0.013,0.483 -0.008,0.173 -0.012,0.392 -0.012,0.656 v 0.967 1.486 c 0,0.942 0.004,1.718 0.012,2.329 0.009,0.611 0.021,1.074 0.038,1.387 0.545,0 1.123,0 1.734,0 0.627,0 1.243,-0.012 1.845,-0.037 0.603,-0.025 1.173,-0.058 1.71,-0.099 0.537,-0.041 1.003,-0.103 1.4,-0.186 -0.033,0.116 -0.054,0.244 -0.062,0.384 -0.009,0.141 -0.013,0.269 -0.013,0.384 0,0.265 0.025,0.479 0.075,0.644 -0.744,-0.033 -1.483,-0.049 -2.218,-0.049 -0.735,0 -1.482,0 -2.242,0 -0.76,0 -1.511,0 -2.254,0 -0.743,0 -1.495,0.016 -2.255,0.049 0.05,-1.057 0.095,-2.11 0.137,-3.158 0.041,-1.049 0.061,-2.119 0.061,-3.209 z"
   id="path32" />&#10;</g></g>&#10;</g>&#10;</g>&#10;</svg>
