<?xml version="1.0" encoding="UTF-8" standalone="no"?>
<!-- Created with Vectornator (http://vectornator.io/) -->

<svg
   height="100%"
   stroke-miterlimit="10"
   style="fill-rule:nonzero;clip-rule:evenodd;stroke-linecap:round;stroke-linejoin:round;"
   version="1.1"
   viewBox="0 0 841.995 595.35"
   width="100%"
   xml:space="preserve"
   id="svg33"
   sodipodi:docname="logo_only.svg"
   inkscape:version="1.3 (1:1.3+202307231459+0e150ed6c4)"
   xmlns:inkscape="http://www.inkscape.org/namespaces/inkscape"
   xmlns:sodipodi="http://sodipodi.sourceforge.net/DTD/sodipodi-0.dtd"
   xmlns="http://www.w3.org/2000/svg"
   xmlns:svg="http://www.w3.org/2000/svg"
   xmlns:vectornator="http://vectornator.io"><sodipodi:namedview
   id="namedview33"
   pagecolor="#ffffff"
   bordercolor="#000000"
   borderopacity="0.25"
   inkscape:showpageshadow="2"
   inkscape:pageopacity="0.0"
   inkscape:pagecheckerboard="0"
   inkscape:deskcolor="#d1d1d1"
   inkscape:zoom="1.0827784"
   inkscape:cx="458.08081"
   inkscape:cy="295.536"
   inkscape:window-width="1850"
   inkscape:window-height="1016"
   inkscape:window-x="0"
   inkscape:window-y="0"
   inkscape:window-maximized="1"
   inkscape:current-layer="g34" />&#10;<defs
   id="defs1" />&#10;<g
   id="Layer-1"
   vectornator:layerName="Layer 1">&#10;<g
   opacity="1"
   vectornator:layerName="Group 1"
   id="g33">&#10;&#10;&#10;&#10;&#10;&#10;<g
   id="g34"
   transform="translate(-6.35259,3.6499176)"><g
     id="g35"
     transform="matrix(1.4448316,0,0,1.4448316,-190.09882,-19.299171)"><path
       d="m 147.01029,358.02561 c 4.19252,-93.41623 32.8264,-325.056304 45.31814,-323.279304 8.9302,1.269511 9.94671,364.197094 65.85458,363.915494 38.94803,-0.68069 75.32542,-263.12168 75.32542,-263.12168 0,0 1.23788,272.49011 52.65054,263.12168 34.29317,1.43064 72.94303,-331.924892 89.70712,-326.256542 9.65906,3.26637 4.03439,326.158662 41.34246,326.256542 35.45274,0.0919 80.58113,-247.8801 80.58113,-247.8801 0,0 -4.0329,248.17225 66.79881,247.8801 25.42322,-0.10546 39.35462,-44.33476 39.35462,-44.33476"
       fill="#3395ff"
       fill-opacity="0"
       fill-rule="nonzero"
       opacity="1"
       stroke="#000000"
       stroke-linecap="round"
       stroke-linejoin="round"
       stroke-width="13.9581"
       vectornator:layerName="Curve 1"
       id="path1" /><path
       d="m 703.04709,334.91251 c 0,-3.91392 3.17301,-7.08693 7.08693,-7.08693 3.91393,0 7.08694,3.17301 7.08694,7.08693 0,3.91393 -3.17301,7.08693 -7.08694,7.08693 -3.91392,0 -7.08693,-3.173 -7.08693,-7.08693 z"
       fill="#010b16"
       fill-rule="nonzero"
       opacity="1"
       stroke="#000000"
       stroke-linecap="butt"
       stroke-linejoin="round"
       stroke-width="0.0150593"
       vectornator:layerName="Oval 1"
       id="path2" /><path
       d="m 137.47922,398.86209 c 0,-3.91393 3.17301,-7.08693 7.08693,-7.08693 3.91394,0 7.08694,3.173 7.08694,7.08693 0,3.91392 -3.173,7.08694 -7.08694,7.08694 -3.91392,0 -7.08693,-3.17302 -7.08693,-7.08694 z"
       fill="#010b16"
       fill-rule="nonzero"
       opacity="1"
       stroke="#000000"
       stroke-linecap="butt"
       stroke-linejoin="round"
       stroke-width="0.0150593"
       vectornator:layerName="Oval 2"
       id="path3" /><path
       d="m 138.49873,378.89037 c 0,-3.91393 3.17302,-7.08695 7.08695,-7.08695 3.91392,0 7.08693,3.17302 7.08693,7.08695 0,3.91392 -3.17301,7.08693 -7.08693,7.08693 -3.91393,0 -7.08695,-3.17301 -7.08695,-7.08693 z"
       fill="#010b16"
       fill-rule="nonzero"
       opacity="1"
       stroke="#000000"
       stroke-linecap="butt"
       stroke-linejoin="round"
       stroke-width="0.0150593"
       vectornator:layerName="Oval 5"
       id="path4" /></g></g>&#10;</g>&#10;</g>&#10;</svg>
